<svg width="17" height="17" xmlns="http://www.w3.org/2000/svg">

 <g>
  <title>background</title>
  <rect fill="none" id="canvas_background" height="402" width="582" y="-1" x="-1"/>
 </g>
 <g>
  <title>Layer 1</title>
  <path id="svg_1" fill="#ffffff" d="m14.1762,0.82361l-11.49598,0c-0.59726,0 -1.17007,0.23726 -1.5924,0.65959c-0.42233,0.42234 -0.6596,0.99514 -0.6596,1.59241l0,11.49599c0,0.5973 0.23727,1.1701 0.6596,1.5924c0.42233,0.4223 0.99514,0.6596 1.5924,0.6596l5.232,0l0,-5.84l-1.978,0l0,-2.27799l1.978,0l0,-1.678c0,-0.951 0.263,-1.69 0.789,-2.215c0.526,-0.526 1.239,-0.79 2.13998,-0.79c0.902,0 1.486,0.035 1.753,0.101l0,2.028l-1.202,0c-0.434,0 -0.73,0.092 -0.889,0.276c-0.158,0.183 -0.237,0.459 -0.237,0.826l0,1.452l2.253,0l-0.3,2.27799l-1.953,0l0,5.84l3.91,0c0.5973,0 1.1701,-0.2373 1.5924,-0.6596c0.4224,-0.4223 0.6596,-0.9951 0.6596,-1.5924l0,-11.49599c0,-0.59727 -0.2372,-1.17007 -0.6596,-1.59241c-0.4223,-0.42233 -0.9951,-0.65959 -1.5924,-0.65959z"/>
 </g>
</svg>