<svg width="17" height="17" xmlns="http://www.w3.org/2000/svg">

 <g>
  <title>background</title>
  <rect fill="none" id="canvas_background" height="402" width="582" y="-1" x="-1"/>
 </g>
 <g>
  <title>Layer 1</title>
  <path id="svg_1" fill="#ffffff" d="m13.6683,4.78509c0,0.1216 -0.024,0.24202 -0.0705,0.35436c-0.0465,0.11235 -0.1148,0.21443 -0.2007,0.30042c-0.086,0.08599 -0.1881,0.15419 -0.3005,0.20073c-0.1123,0.04654 -0.2327,0.07049 -0.3543,0.07049c-0.1216,0 -0.242,-0.02395 -0.3544,-0.07049c-0.1123,-0.04654 -0.2144,-0.11474 -0.3004,-0.20073c-0.086,-0.08599 -0.1542,-0.18807 -0.2007,-0.30042c-0.0466,-0.11234 -0.0705,-0.23276 -0.0705,-0.35436c0,-0.24559 0.0975,-0.48112 0.2712,-0.65478c0.1737,-0.17366 0.4092,-0.27122 0.6548,-0.27122c0.2456,0 0.4811,0.09756 0.6548,0.27122c0.1736,0.17366 0.2712,0.40919 0.2712,0.65478zm2.94,4.18l0,0.012l-0.053,3.35601c-0.0135,1.2103 -0.5003,2.3673 -1.3561,3.2232c-0.8557,0.856 -2.0126,1.343 -3.2229,1.3568l-3.36802,0.052l-0.012,0l-3.356,-0.053c-1.21033,-0.0135 -2.36729,-0.5003 -3.22326,-1.356c-0.85598,-0.8558 -1.34297,-2.0127 -1.35674,-3.223l-0.052,-3.36801l0,-0.012l0.053,-3.356c0.01351,-1.21033 0.50024,-2.36729 1.35603,-3.22326c0.85579,-0.85598 2.01264,-1.34297 3.22297,-1.35674l3.368,-0.052l0.012,0l3.35602,0.053c1.2103,0.01351 2.3673,0.50024 3.2232,1.35603c0.856,0.85579 1.343,2.01264 1.3568,3.22297l0.052,3.368zm-1.49,0l-0.052,-3.345c-0.0094,-0.82272 -0.3404,-1.6091 -0.9221,-2.19089c-0.5818,-0.58178 -1.3682,-0.91276 -2.1909,-0.92211l-3.34502,-0.052l-3.345,0.052c-0.82272,0.00935 -1.6091,0.34033 -2.19089,0.92211c-0.58178,0.58179 -0.91276,1.36817 -0.92211,2.19089l-0.052,3.345l0.052,3.34501c0.00935,0.8227 0.34033,1.6091 0.92211,2.1909c0.58179,0.5818 1.36817,0.9127 2.19089,0.9221l3.345,0.052l3.34502,-0.052c0.8227,-0.0094 1.6091,-0.3403 2.1909,-0.9221c0.5817,-0.5818 0.9127,-1.3682 0.9221,-2.1909l0.052,-3.34501zm-2.402,0c0,1.08951 -0.4328,2.13441 -1.2032,2.90481c-0.7704,0.7704 -1.81531,1.2032 -2.90482,1.2032c-1.08951,0 -2.1344,-0.4328 -2.9048,-1.2032c-0.7704,-0.7704 -1.2032,-1.8153 -1.2032,-2.90481c0,-1.08951 0.4328,-2.1344 1.2032,-2.9048c0.7704,-0.7704 1.81529,-1.2032 2.9048,-1.2032c1.08951,0 2.13442,0.4328 2.90482,1.2032c0.7704,0.7704 1.2032,1.81529 1.2032,2.9048zm-1.49,0c0,-0.69434 -0.2758,-1.36024 -0.7668,-1.85121c-0.49099,-0.49097 -1.15689,-0.76679 -1.85122,-0.76679c-0.69434,0 -1.36024,0.27582 -1.85121,0.76679c-0.49097,0.49097 -0.76679,1.15687 -0.76679,1.85121c0,0.69433 0.27582,1.36021 0.76679,1.85121c0.49097,0.491 1.15687,0.7668 1.85121,0.7668c0.69433,0 1.36023,-0.2758 1.85122,-0.7668c0.491,-0.491 0.7668,-1.15688 0.7668,-1.85121z"/>
 </g>
</svg>