<svg width="17" height="15.000000000000002" xmlns="http://www.w3.org/2000/svg">

 <g>
  <title>background</title>
  <rect fill="none" id="canvas_background" height="402" width="582" y="-1" x="-1"/>
 </g>
 <g>
  <title>Layer 1</title>
  <path id="svg_1" fill="#ffffff" d="m15.1453,4.32361l0,0.438c0,1.615 -0.349,3.174 -1.047,4.678c-0.698,1.50299 -1.776,2.77599 -3.234,3.81899c-1.45901,1.044 -3.14601,1.565 -5.06401,1.565c-1.854,0 -3.53,-0.527 -5.031,-1.582c0.167,0.023 0.427,0.034 0.781,0.034c1.563,0 2.927,-0.505 4.094,-1.514c-0.708,0 -1.344,-0.23 -1.906,-0.69c-0.56204,-0.459 -0.97544,-1.0742 -1.188,-1.76799c0.146,0.045 0.355,0.067 0.625,0.067c0.313,0 0.604,-0.034 0.875,-0.1c-0.75,-0.18 -1.375,-0.595 -1.875,-1.246c-0.5,-0.65 -0.75,-1.391 -0.75,-2.221l0,-0.067c0.48,0.291 0.969,0.437 1.469,0.437c-0.98,-0.673 -1.469,-1.649 -1.469,-2.928c0,-0.583 0.157,-1.178 0.47,-1.784c1.728,2.334 3.978,3.568 6.75,3.702c-0.06235,-0.2645 -0.09422,-0.53526 -0.095,-0.807c0,-0.965 0.318,-1.795 0.953,-2.49c0.63701,-0.696 1.41301,-1.043 2.33001,-1.043c0.958,0 1.76,0.37 2.406,1.11c0.812,-0.179 1.51,-0.46 2.093,-0.84c-0.25,0.83 -0.729,1.48 -1.437,1.951c0.73,-0.112 1.354,-0.303 1.875,-0.572c-0.4286,0.70773 -0.9787,1.33433 -1.625,1.851z"/>
 </g>
</svg>